<svg xmlns="http://www.w3.org/2000/svg" viewBox="0 0 1600 900" preserveAspectRatio="none"><defs><linearGradient id="wall" x2="0" y2="1"><stop stop-color="#eee1ca"/><stop offset="1" stop-color="#d4bea0"/></linearGradient><linearGradient id="floor" x2="0" y2="1"><stop stop-color="#bf9f78"/><stop offset="1" stop-color="#d4bea0"/></linearGradient><radialGradient id="light"><stop stop-color="#fff1c8" stop-opacity=".32"/><stop offset="1" stop-color="#fff1c8" stop-opacity="0"/></radialGradient><radialGradient id="edge"><stop offset=".5" stop-color="#161916" stop-opacity="0"/><stop offset="1" stop-color="#161916" stop-opacity=".3"/></radialGradient></defs><rect x="0" y="0" width="1600" height="900" rx="0" fill="url(#wall)" stroke="none" stroke-width="3"/><path d="M0 0 265 150h1070L1600 0Z" fill="#ede2cd" stroke="none" stroke-width="3" stroke-linejoin="round"/><path d="M0 0 265 150v455L0 900Z" fill="#d4bea0" stroke="none" stroke-width="3" stroke-linejoin="round"/><path d="M1600 0 1335 150v455l265 295Z" fill="#e1cdb0" stroke="none" stroke-width="3" stroke-linejoin="round"/><path d="M0 900 265 605h1070l265 295Z" fill="url(#floor)" stroke="none" stroke-width="3" stroke-linejoin="round"/><path d="M0 877 265 593h1070l265 284v23L1335 615H265L0 900Z" fill="#70634f" stroke="none" stroke-width="3" stroke-linejoin="round"/><path d="M0 866 265 583h1070l265 283" fill="none" stroke="#e4d2b3" stroke-width="4" stroke-linejoin="round"/><path d="M-800 900 351.99999999999994 615" fill="none" stroke="#493f32" stroke-width="2" stroke-linejoin="round"/><path d="M-300 900 491.99999999999994 615" fill="none" stroke="#493f32" stroke-width="2" stroke-linejoin="round"/><path d="M200 900 632.0 615" fill="none" stroke="#493f32" stroke-width="2" stroke-linejoin="round"/><path d="M600 900 744.0 615" fill="none" stroke="#493f32" stroke-width="2" stroke-linejoin="round"/><path d="M1000 900 856.0 615" fill="none" stroke="#493f32" stroke-width="2" stroke-linejoin="round"/><path d="M1400 900 968.0 615" fill="none" stroke="#493f32" stroke-width="2" stroke-linejoin="round"/><path d="M1900 900 1108.0 615" fill="none" stroke="#493f32" stroke-width="2" stroke-linejoin="round"/><path d="M2400 900 1248.0 615" fill="none" stroke="#493f32" stroke-width="2" stroke-linejoin="round"/><path d="M0 650h1600" fill="none" stroke="#584c3c" stroke-width="1" stroke-linejoin="round"/><path d="M0 701h1600" fill="none" stroke="#584c3c" stroke-width="1" stroke-linejoin="round"/><path d="M0 775h1600" fill="none" stroke="#584c3c" stroke-width="1" stroke-linejoin="round"/><path d="M0 884h1600" fill="none" stroke="#584c3c" stroke-width="1" stroke-linejoin="round"/><ellipse cx="890" cy="295" rx="680" ry="530" fill="url(#light)"/><path d="M0 0h1600v226L800 104 0 226Z" fill="#8c7153" stroke="none" stroke-width="3" stroke-linejoin="round"/><path d="M0 226 800 104l800 122v382H0Z" fill="#c1a682" stroke="none" stroke-width="3" stroke-linejoin="round"/><path d="M0 0 800 104 0 626Z" fill="#9c805f" stroke="none" stroke-width="3" stroke-linejoin="round"/><path d="M1600 0 800 104l800 522Z" fill="#ad906a" stroke="none" stroke-width="3" stroke-linejoin="round"/><path d="M0 219 800 95l800 124M0 611h1600" fill="none" stroke="#73583d" stroke-width="18" stroke-linejoin="round"/><path d="M210 194.26999999999998v415.73" fill="none" stroke="#856647" stroke-width="16" stroke-linejoin="round"/><path d="M480 152.96v457.03999999999996" fill="none" stroke="#856647" stroke-width="16" stroke-linejoin="round"/><path d="M1120 152.96v457.03999999999996" fill="none" stroke="#856647" stroke-width="16" stroke-linejoin="round"/><path d="M1390 194.26999999999998v415.73" fill="none" stroke="#856647" stroke-width="16" stroke-linejoin="round"/><circle cx="800" cy="312" r="91" fill="#c8d9c9" stroke="#8c714e" stroke-width="13"/><path d="M800 229v166m-83-83h166" fill="none" stroke="#987e59" stroke-width="8" stroke-linejoin="round"/><path d="M727 398 600 829h450L875 398Z" fill="#d9c59c" stroke="none" stroke-width="3" stroke-linejoin="round"/><ellipse cx="426.64" cy="715" rx="124.19999999999999" ry="18" fill="#241e18" opacity=".16"/><path d="M526 514l30-18v186l-30 18Z" fill="#846646" stroke="none" stroke-width="3" stroke-linejoin="round"/><rect x="319" y="514" width="207" height="186" rx="4" fill="#a68560" stroke="#655541" stroke-width="3"/><path d="M311 514l30-18h223l-30 18Z" fill="#d0b38a" stroke="#806448" stroke-width="3" stroke-linejoin="round"/><rect x="311" y="514" width="223" height="12" rx="2" fill="#b49570" stroke="#655541" stroke-width="3"/><rect x="331" y="539.0" width="183" height="40.666666666666664" rx="2" fill="#b99b75" stroke="#8b6d4e" stroke-width="2"/><rect x="404.5" y="553.0" width="36" height="5" rx="2" fill="#71624a" stroke="none" stroke-width="3"/><rect x="331" y="587.6666666666666" width="183" height="40.666666666666664" rx="2" fill="#b99b75" stroke="#8b6d4e" stroke-width="2"/><rect x="404.5" y="601.6666666666666" width="36" height="5" rx="2" fill="#71624a" stroke="none" stroke-width="3"/><rect x="331" y="636.3333333333334" width="183" height="40.666666666666664" rx="2" fill="#b99b75" stroke="#8b6d4e" stroke-width="2"/><rect x="404.5" y="650.3333333333334" width="36" height="5" rx="2" fill="#71624a" stroke="none" stroke-width="3"/><ellipse cx="259.55" cy="789" rx="154.24" ry="14" fill="#241e18" opacity=".16"/><path d="M127 667l18-14h241l-18 14Z" fill="#c6a171" stroke="none" stroke-width="3" stroke-linejoin="round"/><path d="M368 667l18-14v112l-18 14Z" fill="#806646" stroke="none" stroke-width="3" stroke-linejoin="round"/><rect x="127" y="667" width="241" height="112" rx="2" fill="#ab8558" stroke="#655541" stroke-width="3"/><rect x="233.04000000000002" y="667" width="33.74" height="112" rx="0" fill="#d9c49d" stroke="none" stroke-width="3"/><rect x="155.92" y="709.56" width="60.25" height="18" rx="1" fill="#e4d6b5" stroke="none" stroke-width="3"/><ellipse cx="258.7" cy="670" rx="111.36" ry="14" fill="#241e18" opacity=".16"/><path d="M163 574l18-14h174l-18 14Z" fill="#c6a171" stroke="none" stroke-width="3" stroke-linejoin="round"/><path d="M337 574l18-14v86l-18 14Z" fill="#806646" stroke="none" stroke-width="3" stroke-linejoin="round"/><rect x="163" y="574" width="174" height="86" rx="2" fill="#ab8558" stroke="#655541" stroke-width="3"/><rect x="239.56" y="574" width="24.360000000000003" height="86" rx="0" fill="#d9c49d" stroke="none" stroke-width="3"/><rect x="183.88" y="606.68" width="43.5" height="18" rx="1" fill="#e4d6b5" stroke="none" stroke-width="3"/><ellipse cx="1315.9" cy="785" rx="152.32" ry="14" fill="#241e18" opacity=".16"/><path d="M1185 658l18-14h238l-18 14Z" fill="#c6a171" stroke="none" stroke-width="3" stroke-linejoin="round"/><path d="M1423 658l18-14v117l-18 14Z" fill="#806646" stroke="none" stroke-width="3" stroke-linejoin="round"/><rect x="1185" y="658" width="238" height="117" rx="2" fill="#ab8558" stroke="#655541" stroke-width="3"/><rect x="1289.72" y="658" width="33.32" height="117" rx="0" fill="#d9c49d" stroke="none" stroke-width="3"/><rect x="1213.56" y="702.46" width="59.5" height="18" rx="1" fill="#e4d6b5" stroke="none" stroke-width="3"/><ellipse cx="1300.85" cy="664" rx="94.08" ry="14" fill="#241e18" opacity=".16"/><path d="M1220 564l18-14h147l-18 14Z" fill="#c6a171" stroke="none" stroke-width="3" stroke-linejoin="round"/><path d="M1367 564l18-14v90l-18 14Z" fill="#806646" stroke="none" stroke-width="3" stroke-linejoin="round"/><rect x="1220" y="564" width="147" height="90" rx="2" fill="#ab8558" stroke="#655541" stroke-width="3"/><rect x="1284.68" y="564" width="20.580000000000002" height="90" rx="0" fill="#d9c49d" stroke="none" stroke-width="3"/><rect x="1237.64" y="598.2" width="36.75" height="18" rx="1" fill="#e4d6b5" stroke="none" stroke-width="3"/><ellipse cx="814" cy="753" rx="214" ry="23" fill="#241e18" opacity=".16"/><rect x="621" y="618" width="353" height="124" rx="8" fill="#9d7650" stroke="#6d5138" stroke-width="5"/><path d="M621 645v-16q0-50 57-50h239q57 0 57 50v16Z" fill="#b48d62" stroke="#715537" stroke-width="5" stroke-linejoin="round"/><rect x="690" y="582" width="19" height="157" rx="0" fill="#71604a" stroke="#655541" stroke-width="3"/><rect x="889" y="582" width="19" height="157" rx="0" fill="#71604a" stroke="#655541" stroke-width="3"/><rect x="786" y="626" width="30" height="44" rx="4" fill="#c9b782" stroke="#756344" stroke-width="3"/><rect width="1600" height="900" fill="url(#edge)" pointer-events="none"/></svg>