<svg xmlns="http://www.w3.org/2000/svg" viewBox="0 0 1600 900" preserveAspectRatio="none"><defs><linearGradient id="wall" x2="0" y2="1"><stop stop-color="#eee1ca" /><stop offset="1" stop-color="#d4bea0" /></linearGradient><linearGradient id="floor" x2="0" y2="1"><stop stop-color="#bf9f78" /><stop offset="1" stop-color="#d4bea0" /></linearGradient><radialGradient id="light"><stop stop-color="#fff1c8" stop-opacity=".32" /><stop offset="1" stop-color="#fff1c8" stop-opacity="0" /></radialGradient><radialGradient id="edge"><stop offset=".5" stop-color="#161916" stop-opacity="0" /><stop offset="1" stop-color="#161916" stop-opacity=".3" /></radialGradient><radialGradient id="floor-glow" cx=".5" cy=".5" r=".5"><stop stop-color="#fff4ce" stop-opacity=".24" /><stop offset="1" stop-color="#fff4ce" stop-opacity="0" /></radialGradient><linearGradient id="soft-glass" x2=".8" y2="1"><stop stop-color="#e5ece2" /><stop offset="1" stop-color="#b6cdcc" /></linearGradient></defs><rect x="0" y="0" width="1600" height="900" rx="0" fill="url(#wall)" stroke="none" stroke-width="3" /><path d="M0 0 265 150h1070L1600 0Z" fill="#ede2cd" stroke="none" stroke-width="3" stroke-linejoin="round" /><path d="M0 0 265 150v455L0 900Z" fill="#d4bea0" stroke="none" stroke-width="3" stroke-linejoin="round" /><path d="M1600 0 1335 150v455l265 295Z" fill="#e1cdb0" stroke="none" stroke-width="3" stroke-linejoin="round" /><path d="M0 900 265 605h1070l265 295Z" fill="url(#floor)" stroke="none" stroke-width="3" stroke-linejoin="round" /><path d="M0 877 265 593h1070l265 284v23L1335 615H265L0 900Z" fill="#70634f" stroke="none" stroke-width="3" stroke-linejoin="round" /><path d="M0 866 265 583h1070l265 283" fill="none" stroke="#e4d2b3" stroke-width="2.8" stroke-linejoin="round" stroke-linecap="round" stroke-opacity=".7" /><path d="M-800 900 351.99999999999994 615" fill="none" stroke="#493f32" stroke-width="1" stroke-linejoin="round" stroke-opacity=".16" stroke-linecap="round" /><path d="M-300 900 491.99999999999994 615" fill="none" stroke="#493f32" stroke-width="1" stroke-linejoin="round" stroke-opacity=".16" stroke-linecap="round" /><path d="M200 900 632.0 615" fill="none" stroke="#493f32" stroke-width="1" stroke-linejoin="round" stroke-opacity=".16" stroke-linecap="round" /><path d="M600 900 744.0 615" fill="none" stroke="#493f32" stroke-width="1" stroke-linejoin="round" stroke-opacity=".16" stroke-linecap="round" /><path d="M1000 900 856.0 615" fill="none" stroke="#493f32" stroke-width="1" stroke-linejoin="round" stroke-opacity=".16" stroke-linecap="round" /><path d="M1400 900 968.0 615" fill="none" stroke="#493f32" stroke-width="1" stroke-linejoin="round" stroke-opacity=".16" stroke-linecap="round" /><path d="M1900 900 1108.0 615" fill="none" stroke="#493f32" stroke-width="1" stroke-linejoin="round" stroke-opacity=".16" stroke-linecap="round" /><path d="M2400 900 1248.0 615" fill="none" stroke="#493f32" stroke-width="1" stroke-linejoin="round" stroke-opacity=".16" stroke-linecap="round" /><path d="M0 650h1600" fill="none" stroke="#584c3c" stroke-width="1" stroke-linejoin="round" stroke-opacity=".16" stroke-linecap="round" /><path d="M0 701h1600" fill="none" stroke="#584c3c" stroke-width="1" stroke-linejoin="round" stroke-opacity=".16" stroke-linecap="round" /><path d="M0 775h1600" fill="none" stroke="#584c3c" stroke-width="1" stroke-linejoin="round" stroke-opacity=".16" stroke-linecap="round" /><path d="M0 884h1600" fill="none" stroke="#584c3c" stroke-width="1" stroke-linejoin="round" stroke-opacity=".16" stroke-linecap="round" /><ellipse cx="890" cy="295" rx="680" ry="530" fill="url(#light)" /><ellipse cx="1030" cy="670" rx="340" ry="140" fill="url(#floor-glow)" /><rect x="970" y="190" width="210" height="235" rx="65" fill="#91a7a8" stroke="#aa906e" stroke-width="10" stroke-linejoin="round" stroke-linecap="round" stroke-opacity=".7" /><rect x="982" y="204" width="186" height="209" rx="55" fill="url(#soft-glass)" stroke="#ecdfc5" stroke-width="2.8" stroke-linejoin="round" stroke-linecap="round" stroke-opacity=".7" /><path d="M1075 205v206M983 301h184" fill="none" stroke="#a78b65" stroke-width="8" stroke-linejoin="round" stroke-linecap="round" stroke-opacity=".7" /><ellipse cx="540" cy="717" rx="435" ry="38" fill="#241e18" opacity=".16" /><rect x="140" y="210" width="86" height="475" rx="0" fill="#ac865d" stroke="#796043" stroke-width="2.0999999999999996" stroke-linejoin="round" stroke-linecap="round" stroke-opacity=".7" /><path d="M140 210l20-11h86l-20 11Z" fill="#ddc3a0" stroke="#846846" stroke-width="2.0999999999999996" stroke-linejoin="round" stroke-linecap="round" stroke-opacity=".7" /><rect x="136" y="210" width="94" height="10" rx="1" fill="#d0b089" stroke="#8d6c48" stroke-width="1.4" stroke-linejoin="round" stroke-linecap="round" stroke-opacity=".7" /><rect x="225" y="268" width="86" height="417" rx="0" fill="#ac865d" stroke="#796043" stroke-width="2.0999999999999996" stroke-linejoin="round" stroke-linecap="round" stroke-opacity=".7" /><path d="M225 268l20-11h86l-20 11Z" fill="#ddc3a0" stroke="#846846" stroke-width="2.0999999999999996" stroke-linejoin="round" stroke-linecap="round" stroke-opacity=".7" /><rect x="221" y="268" width="94" height="10" rx="1" fill="#d0b089" stroke="#8d6c48" stroke-width="1.4" stroke-linejoin="round" stroke-linecap="round" stroke-opacity=".7" /><rect x="310" y="326" width="86" height="359" rx="0" fill="#ac865d" stroke="#796043" stroke-width="2.0999999999999996" stroke-linejoin="round" stroke-linecap="round" stroke-opacity=".7" /><path d="M310 326l20-11h86l-20 11Z" fill="#ddc3a0" stroke="#846846" stroke-width="2.0999999999999996" stroke-linejoin="round" stroke-linecap="round" stroke-opacity=".7" /><rect x="306" y="326" width="94" height="10" rx="1" fill="#d0b089" stroke="#8d6c48" stroke-width="1.4" stroke-linejoin="round" stroke-linecap="round" stroke-opacity=".7" /><rect x="395" y="384" width="86" height="301" rx="0" fill="#ac865d" stroke="#796043" stroke-width="2.0999999999999996" stroke-linejoin="round" stroke-linecap="round" stroke-opacity=".7" /><path d="M395 384l20-11h86l-20 11Z" fill="#ddc3a0" stroke="#846846" stroke-width="2.0999999999999996" stroke-linejoin="round" stroke-linecap="round" stroke-opacity=".7" /><rect x="391" y="384" width="94" height="10" rx="1" fill="#d0b089" stroke="#8d6c48" stroke-width="1.4" stroke-linejoin="round" stroke-linecap="round" stroke-opacity=".7" /><rect x="480" y="442" width="86" height="243" rx="0" fill="#ac865d" stroke="#796043" stroke-width="2.0999999999999996" stroke-linejoin="round" stroke-linecap="round" stroke-opacity=".7" /><path d="M480 442l20-11h86l-20 11Z" fill="#ddc3a0" stroke="#846846" stroke-width="2.0999999999999996" stroke-linejoin="round" stroke-linecap="round" stroke-opacity=".7" /><rect x="476" y="442" width="94" height="10" rx="1" fill="#d0b089" stroke="#8d6c48" stroke-width="1.4" stroke-linejoin="round" stroke-linecap="round" stroke-opacity=".7" /><rect x="565" y="500" width="86" height="185" rx="0" fill="#ac865d" stroke="#796043" stroke-width="2.0999999999999996" stroke-linejoin="round" stroke-linecap="round" stroke-opacity=".7" /><path d="M565 500l20-11h86l-20 11Z" fill="#ddc3a0" stroke="#846846" stroke-width="2.0999999999999996" stroke-linejoin="round" stroke-linecap="round" stroke-opacity=".7" /><rect x="561" y="500" width="94" height="10" rx="1" fill="#d0b089" stroke="#8d6c48" stroke-width="1.4" stroke-linejoin="round" stroke-linecap="round" stroke-opacity=".7" /><rect x="650" y="558" width="86" height="127" rx="0" fill="#ac865d" stroke="#796043" stroke-width="2.0999999999999996" stroke-linejoin="round" stroke-linecap="round" stroke-opacity=".7" /><path d="M650 558l20-11h86l-20 11Z" fill="#ddc3a0" stroke="#846846" stroke-width="2.0999999999999996" stroke-linejoin="round" stroke-linecap="round" stroke-opacity=".7" /><rect x="646" y="558" width="94" height="10" rx="1" fill="#d0b089" stroke="#8d6c48" stroke-width="1.4" stroke-linejoin="round" stroke-linecap="round" stroke-opacity=".7" /><rect x="735" y="616" width="86" height="69" rx="0" fill="#ac865d" stroke="#796043" stroke-width="2.0999999999999996" stroke-linejoin="round" stroke-linecap="round" stroke-opacity=".7" /><path d="M735 616l20-11h86l-20 11Z" fill="#ddc3a0" stroke="#846846" stroke-width="2.0999999999999996" stroke-linejoin="round" stroke-linecap="round" stroke-opacity=".7" /><rect x="731" y="616" width="94" height="10" rx="1" fill="#d0b089" stroke="#8d6c48" stroke-width="1.4" stroke-linejoin="round" stroke-linecap="round" stroke-opacity=".7" /><path d="M105 118 794 588" fill="none" stroke="#76583a" stroke-width="12" stroke-linejoin="round" stroke-linecap="round" stroke-opacity=".7" /><path d="M135 138v91" fill="none" stroke="#96724d" stroke-width="7" stroke-linejoin="round" stroke-linecap="round" stroke-opacity=".7" /><path d="M223 198v91" fill="none" stroke="#96724d" stroke-width="7" stroke-linejoin="round" stroke-linecap="round" stroke-opacity=".7" /><path d="M311 258v91" fill="none" stroke="#96724d" stroke-width="7" stroke-linejoin="round" stroke-linecap="round" stroke-opacity=".7" /><path d="M399 318v91" fill="none" stroke="#96724d" stroke-width="7" stroke-linejoin="round" stroke-linecap="round" stroke-opacity=".7" /><path d="M487 378v91" fill="none" stroke="#96724d" stroke-width="7" stroke-linejoin="round" stroke-linecap="round" stroke-opacity=".7" /><path d="M575 438v91" fill="none" stroke="#96724d" stroke-width="7" stroke-linejoin="round" stroke-linecap="round" stroke-opacity=".7" /><path d="M663 498v91" fill="none" stroke="#96724d" stroke-width="7" stroke-linejoin="round" stroke-linecap="round" stroke-opacity=".7" /><path d="M751 558v91" fill="none" stroke="#96724d" stroke-width="7" stroke-linejoin="round" stroke-linecap="round" stroke-opacity=".7" /><path d="M104 106 793 576" fill="none" stroke="#c4a174" stroke-width="3.5" stroke-linejoin="round" stroke-linecap="round" stroke-opacity=".7" /><path d="M780 660l120-60h267l-109 122Z" fill="#312d27" stroke="#967c58" stroke-width="10" stroke-linejoin="round" stroke-linecap="round" stroke-opacity=".7" /><path d="M801 659h245l-12 11h-245Z" fill="#70624e" stroke="#403b32" stroke-width="1.4" stroke-linejoin="round" stroke-linecap="round" stroke-opacity=".7" /><path d="M821 668h219l-12 11h-219Z" fill="#70624e" stroke="#403b32" stroke-width="1.4" stroke-linejoin="round" stroke-linecap="round" stroke-opacity=".7" /><path d="M841 677h193l-12 11h-193Z" fill="#70624e" stroke="#403b32" stroke-width="1.4" stroke-linejoin="round" stroke-linecap="round" stroke-opacity=".7" /><path d="M861 686h167l-12 11h-167Z" fill="#70624e" stroke="#403b32" stroke-width="1.4" stroke-linejoin="round" stroke-linecap="round" stroke-opacity=".7" /><path d="M881 695h141l-12 11h-141Z" fill="#70624e" stroke="#403b32" stroke-width="1.4" stroke-linejoin="round" stroke-linecap="round" stroke-opacity=".7" /><g transform="translate(-1150 120)"><ellipse cx="1319.2" cy="725" rx="126.0" ry="18" fill="#241e18" opacity=".16" /><path d="M1420 540l30-18v170l-30 18Z" fill="#846646" stroke="none" stroke-width="3" stroke-linejoin="round" /><rect x="1210" y="540" width="210" height="170" rx="4" fill="#a68560" stroke="#655541" stroke-width="2.0999999999999996" stroke-linejoin="round" stroke-linecap="round" stroke-opacity=".7" /><path d="M1226.80 574.00q33.60 -2 63.00 0t52.50 0" fill="none" stroke="#665236" stroke-width=".9" stroke-opacity=".17" /><path d="M1226.80 664.10q33.60 -2 63.00 0t52.50 0" fill="none" stroke="#665236" stroke-width=".9" stroke-opacity=".17" /><path d="M1215.00 705.00h200.00" fill="none" stroke="#ead5b0" stroke-width="1" stroke-opacity=".3" /><path d="M1202 540l30-18h226l-30 18Z" fill="#d0b38a" stroke="#806448" stroke-width="2.0999999999999996" stroke-linejoin="round" stroke-linecap="round" stroke-opacity=".7" /><rect x="1202" y="540" width="226" height="12" rx="2" fill="#b49570" stroke="#655541" stroke-width="2.0999999999999996" stroke-linejoin="round" stroke-linecap="round" stroke-opacity=".7" /><rect x="1222" y="565.0" width="186" height="35.333333333333336" rx="2" fill="#b99b75" stroke="#8b6d4e" stroke-width="1.4" stroke-linejoin="round" stroke-linecap="round" stroke-opacity=".7" /><path d="M1236.88 572.07q29.76 -2 55.80 0t46.50 0" fill="none" stroke="#665236" stroke-width=".9" stroke-opacity=".17" /><path d="M1236.88 590.79q29.76 -2 55.80 0t46.50 0" fill="none" stroke="#665236" stroke-width=".9" stroke-opacity=".17" /><path d="M1227.00 595.33h176.00" fill="none" stroke="#ead5b0" stroke-width="1" stroke-opacity=".3" /><rect x="1297.0" y="579.0" width="36" height="5" rx="2" fill="#71624a" stroke="none" stroke-width="3" /><rect x="1222" y="608.3333333333334" width="186" height="35.333333333333336" rx="2" fill="#b99b75" stroke="#8b6d4e" stroke-width="1.4" stroke-linejoin="round" stroke-linecap="round" stroke-opacity=".7" /><path d="M1236.88 615.40q29.76 -2 55.80 0t46.50 0" fill="none" stroke="#665236" stroke-width=".9" stroke-opacity=".17" /><path d="M1236.88 634.13q29.76 -2 55.80 0t46.50 0" fill="none" stroke="#665236" stroke-width=".9" stroke-opacity=".17" /><path d="M1227.00 638.67h176.00" fill="none" stroke="#ead5b0" stroke-width="1" stroke-opacity=".3" /><rect x="1297.0" y="622.3333333333334" width="36" height="5" rx="2" fill="#71624a" stroke="none" stroke-width="3" /><rect x="1222" y="651.6666666666666" width="186" height="35.333333333333336" rx="2" fill="#b99b75" stroke="#8b6d4e" stroke-width="1.4" stroke-linejoin="round" stroke-linecap="round" stroke-opacity=".7" /><path d="M1236.88 658.73q29.76 -2 55.80 0t46.50 0" fill="none" stroke="#665236" stroke-width=".9" stroke-opacity=".17" /><path d="M1236.88 677.46q29.76 -2 55.80 0t46.50 0" fill="none" stroke="#665236" stroke-width=".9" stroke-opacity=".17" /><path d="M1227.00 682.00h176.00" fill="none" stroke="#ead5b0" stroke-width="1" stroke-opacity=".3" /><rect x="1297.0" y="665.6666666666666" width="36" height="5" rx="2" fill="#71624a" stroke="none" stroke-width="3" /><ellipse cx="1315.0" cy="520" rx="121.8" ry="20" fill="#241e18" opacity=".16" /><rect x="1228" y="321" width="174" height="190" rx="0" fill="#544a3c" stroke="none" stroke-width="3" /><rect x="1210" y="315" width="14" height="190" rx="1" fill="#9c7955" stroke="#655541" stroke-width="2.0999999999999996" stroke-linejoin="round" stroke-linecap="round" stroke-opacity=".7" /><rect x="1406" y="315" width="14" height="190" rx="1" fill="#9c7955" stroke="#655541" stroke-width="2.0999999999999996" stroke-linejoin="round" stroke-linecap="round" stroke-opacity=".7" /><path d="M1210 315.0l17-12h206l-13 12Z" fill="#b59570" stroke="none" stroke-width="3" stroke-linejoin="round" /><rect x="1210" y="315.0" width="210" height="12" rx="1" fill="#9c7955" stroke="#655541" stroke-width="2.0999999999999996" stroke-linejoin="round" stroke-linecap="round" stroke-opacity=".7" /><path d="M1210 410.0l17-12h206l-13 12Z" fill="#b59570" stroke="none" stroke-width="3" stroke-linejoin="round" /><rect x="1210" y="410.0" width="210" height="12" rx="1" fill="#9c7955" stroke="#655541" stroke-width="2.0999999999999996" stroke-linejoin="round" stroke-linecap="round" stroke-opacity=".7" /><path d="M1210 505.0l17-12h206l-13 12Z" fill="#b59570" stroke="none" stroke-width="3" stroke-linejoin="round" /><rect x="1210" y="505.0" width="210" height="12" rx="1" fill="#9c7955" stroke="#655541" stroke-width="2.0999999999999996" stroke-linejoin="round" stroke-linecap="round" stroke-opacity=".7" /><rect x="1250" y="360" width="100" height="80" rx="3" fill="#b5beb0" stroke="#746d59" stroke-width="2.8" stroke-linejoin="round" stroke-linecap="round" stroke-opacity=".7" /><rect x="1257" y="367" width="86" height="66" rx="1" fill="#d9d6ba" stroke="none" /><path d="M1257 417 1281 392l27 23 17-13 18 15v16h-86Z" fill="#9daa93" /><path d="M1257 428 1284 412l24 15 18-11 17 12v5h-86Z" fill="#748c79" /><circle cx="1321" cy="381" r="7" fill="#ede2b7" /><ellipse cx="1292.5" cy="514" rx="57.6" ry="14" fill="#241e18" opacity=".16" /><path d="M1243 472l18-14h90l-18 14Z" fill="#c6a171" stroke="none" stroke-width="3" stroke-linejoin="round" /><path d="M1333 472l18-14v32l-18 14Z" fill="#806646" stroke="none" stroke-width="3" stroke-linejoin="round" /><rect x="1243" y="472" width="90" height="32" rx="2" fill="#ab8558" stroke="#655541" stroke-width="2.0999999999999996" stroke-linejoin="round" stroke-linecap="round" stroke-opacity=".7" /><path d="M1250.20 478.40q14.40 -2 27.00 0t22.50 0" fill="none" stroke="#665236" stroke-width=".9" stroke-opacity=".17" /><path d="M1250.20 495.36q14.40 -2 27.00 0t22.50 0" fill="none" stroke="#665236" stroke-width=".9" stroke-opacity=".17" /><path d="M1248.00 499.00h80.00" fill="none" stroke="#ead5b0" stroke-width="1" stroke-opacity=".3" /><rect x="1282.6" y="472" width="12.600000000000001" height="32" rx="0" fill="#d9c49d" stroke="none" stroke-width="3" /><rect x="1253.8" y="484.16" width="22.5" height="18" rx="1" fill="#e4d6b5" stroke="none" stroke-width="3" /><rect x="1320" y="505" width="37" height="27" rx="8" fill="#9caa8a" stroke="#718267" stroke-width="2.0999999999999996" stroke-linejoin="round" stroke-linecap="round" stroke-opacity=".7" /><path d="M1338 507v-38m0 15-20-16m20 12 17-22" fill="none" stroke="#788562" stroke-width="3.5" stroke-linejoin="round" stroke-linecap="round" stroke-opacity=".7" /></g><rect width="1600" height="900" fill="url(#edge)" pointer-events="none" /></svg>