<svg xmlns="http://www.w3.org/2000/svg" viewBox="0 0 1600 900"><defs><linearGradient id="wall" x2="0" y2="1"><stop stop-color="#f2eee5"/><stop offset="1" stop-color="#ddd6c6"/></linearGradient><linearGradient id="floor" x2="0" y2="1"><stop stop-color="#ad9275"/><stop offset="1" stop-color="#dfc6a6"/></linearGradient><linearGradient id="sky" x2="0" y2="1"><stop stop-color="#a4c9d9"/><stop offset="1" stop-color="#e8f0df"/></linearGradient><radialGradient id="shade"><stop offset=".5" stop-color="#1e252d" stop-opacity="0"/><stop offset="1" stop-color="#1e252d" stop-opacity=".15"/></radialGradient><pattern id="wood" width="80" height="16" patternUnits="userSpaceOnUse"><path d="M0 10Q20 5 40 10T80 10" stroke="#775d42" stroke-opacity=".08" fill="none"/></pattern></defs><rect x="0" y="0" width="1600" height="900" rx="0" fill="url(#floor)"/><path d="M0 0H1600L1310 160H290Z" fill="#f6f0e7"/><path d="M0 0 290 160V570L0 900Z" fill="#d1cbbd"/><path d="M1600 0 1310 160V570L1600 900Z" fill="#d9d4c8"/><rect x="290" y="160" width="1020" height="410" rx="0" fill="#ebe8de"/><path d="M0 900 290 570H1310L1600 900" fill="url(#floor)"/><path d="M0 891 290 560H1310L1600 891" stroke="#d0b99b" stroke-width="12" fill="none"/><path d="M-300 900  668.0 570" stroke="#81674e" stroke-opacity=".12"/><path d="M-150 900  686.0 570" stroke="#81674e" stroke-opacity=".12"/><path d="M0 900  704.0 570" stroke="#81674e" stroke-opacity=".12"/><path d="M150 900  722.0 570" stroke="#81674e" stroke-opacity=".12"/><path d="M300 900  740.0 570" stroke="#81674e" stroke-opacity=".12"/><path d="M450 900  758.0 570" stroke="#81674e" stroke-opacity=".12"/><path d="M600 900  776.0 570" stroke="#81674e" stroke-opacity=".12"/><path d="M750 900  794.0 570" stroke="#81674e" stroke-opacity=".12"/><path d="M900 900  812.0 570" stroke="#81674e" stroke-opacity=".12"/><path d="M1050 900  830.0 570" stroke="#81674e" stroke-opacity=".12"/><path d="M1200 900  848.0 570" stroke="#81674e" stroke-opacity=".12"/><path d="M1350 900  866.0 570" stroke="#81674e" stroke-opacity=".12"/><path d="M1500 900  884.0 570" stroke="#81674e" stroke-opacity=".12"/><path d="M1650 900  902.0 570" stroke="#81674e" stroke-opacity=".12"/><path d="M1800 900  920.0 570" stroke="#81674e" stroke-opacity=".12"/><path d="M1950 900  938.0 570" stroke="#81674e" stroke-opacity=".12"/><rect x="0" y="575" width="1600" height="325" rx="0" fill="url(#wood)"/><rect x="660" y="180" width="295" height="270" rx="5" fill="#b0a28f"/><rect x="670" y="190" width="275" height="250" rx="0" fill="url(#sky)"/><path d="M670 440Q807.5 250 945 440" fill="#6c9673"/><rect x="799.25" y="190" width="8" height="250" rx="0" fill="#f4efe5"/><rect x="670" y="310.0" width="275" height="8" rx="0" fill="#f4efe5"/><rect x="650" y="448" width="315" height="14" rx="4" fill="#dbd2c0"/><rect x="330" y="453" width="143" height="179" rx="4" fill="#b5c2bb"/><rect x="339" y="467" width="125" height="155" rx="4" fill="#c3cec7"/><rect x="389" y="481" width="28" height="5" rx="2" fill="#7d8983"/><rect x="480" y="453" width="143" height="179" rx="4" fill="#b5c2bb"/><rect x="489" y="467" width="125" height="155" rx="4" fill="#c3cec7"/><rect x="539" y="481" width="28" height="5" rx="2" fill="#7d8983"/><rect x="630" y="453" width="143" height="179" rx="4" fill="#b5c2bb"/><rect x="639" y="467" width="125" height="155" rx="4" fill="#c3cec7"/><rect x="689" y="481" width="28" height="5" rx="2" fill="#7d8983"/><rect x="780" y="453" width="143" height="179" rx="4" fill="#b5c2bb"/><rect x="789" y="467" width="125" height="155" rx="4" fill="#c3cec7"/><rect x="839" y="481" width="28" height="5" rx="2" fill="#7d8983"/><rect x="930" y="453" width="143" height="179" rx="4" fill="#b5c2bb"/><rect x="939" y="467" width="125" height="155" rx="4" fill="#c3cec7"/><rect x="989" y="481" width="28" height="5" rx="2" fill="#7d8983"/><rect x="1080" y="453" width="143" height="179" rx="4" fill="#b5c2bb"/><rect x="1089" y="467" width="125" height="155" rx="4" fill="#c3cec7"/><rect x="1139" y="481" width="28" height="5" rx="2" fill="#7d8983"/><rect x="1230" y="453" width="143" height="179" rx="4" fill="#b5c2bb"/><rect x="1239" y="467" width="125" height="155" rx="4" fill="#c3cec7"/><rect x="1289" y="481" width="28" height="5" rx="2" fill="#7d8983"/><rect x="319" y="437" width="966" height="25" rx="3" fill="#e3ddd0"/><rect x="1070" y="214" width="200" height="220" rx="5" fill="#acb9b2"/><rect x="1088" y="236" width="163" height="173" rx="4" fill="#bbc5be"/><rect x="354" y="233" width="242" height="200" rx="8" fill="#a8b9b3"/><rect x="369" y="249" width="210" height="87" rx="6" fill="#cad1c7"/><rect x="375" y="365" width="30" height="6" rx="3" fill="#829690"/><rect x="610" y="447" width="190" height="12" rx="10" fill="#aebabc"/><path d="M699 440v-40q0-24 25-24" fill="none" stroke="#8b9997" stroke-width="10"/><rect x="930" y="412" width="33" height="36" rx="5" fill="#83a8a1"/><rect x="979" y="412" width="33" height="36" rx="5" fill="#c2b69b"/><rect x="1028" y="412" width="33" height="36" rx="5" fill="#98a5bd"/><rect width="1600" height="900" fill="url(#shade)" pointer-events="none"/></svg>